<svg xmlns="http://www.w3.org/2000/svg" viewBox="0 0 512 512" role="img" aria-label="해빗트래커">
  <rect width="512" height="512" fill="#26231f"/>
  <rect x="66" y="66" width="380" height="380" rx="94" fill="#f7f4ef"/>
  <rect x="102" y="102" width="308" height="308" rx="70" fill="#ffffff"/>
  <rect x="124" y="124" width="264" height="46" rx="23" fill="#3b5bdb"/>
  <g fill="#eef2ff" stroke="#d7d0c7" stroke-width="4">
    <rect x="124" y="204" width="72" height="72" rx="18"/>
    <rect x="220" y="204" width="72" height="72" rx="18"/>
    <rect x="316" y="204" width="72" height="72" rx="18"/>
    <rect x="124" y="300" width="72" height="72" rx="18"/>
    <rect x="220" y="300" width="72" height="72" rx="18"/>
    <rect x="316" y="300" width="72" height="72" rx="18"/>
  </g>
  <rect x="220" y="204" width="72" height="72" rx="18" fill="#dfe6ff" stroke="#3b5bdb" stroke-width="4"/>
  <rect x="124" y="300" width="72" height="72" rx="18" fill="#eaf7ed" stroke="#16a34a" stroke-width="4"/>
  <path d="M140 336l18 18 40-48" fill="none" stroke="#16a34a" stroke-width="18" stroke-linecap="round" stroke-linejoin="round"/>
  <circle cx="256" cy="240" r="14" fill="#3b5bdb"/>
</svg>
