<svg xmlns="http://www.w3.org/2000/svg" viewBox="0 0 512 512" role="img" aria-label="하루 한발짝">
  <defs>
    <linearGradient id="green" x1="92" y1="56" x2="416" y2="468" gradientUnits="userSpaceOnUse">
      <stop offset="0" stop-color="#92cc70"/>
      <stop offset="1" stop-color="#5fb457"/>
    </linearGradient>
  </defs>
  <rect width="512" height="512" fill="#fff"/>
  <rect x="32" y="32" width="448" height="448" rx="104" fill="url(#green)"/>
  <path d="M104 386c82-48 225-63 328-22-95-17-231-1-328 22z" fill="#fff"/>
  <path d="M304 113c48 17 58 82 30 135-18 34-48 56-68 83-9 12-16 25-22 41l-53-31c21-35 36-70 37-118 0-45 26-94 76-110z" fill="#fff"/>
  <path d="M195 329l54 31c-11 36-33 65-62 72-31 8-57-14-55-47 2-30 24-52 63-56z" fill="#fff"/>
  <path d="M190 320l67 39-10 21-68-39z" fill="#78bf61"/>
</svg>
